PathFileType	4	(X/Y/Z)	C:\Users\Willi\Documents\Github\OpenSimMatlabBasic\ExampleData\Trials\dynamic06\marker_experimental.trc
DataRate	CameraRate	NumFrames	NumMarkers	Units	OrigDataRate	OrigDataStartFrame	OrigNumFrames
150.000000	150.000000	2	179	mm	150.000000	247	330
Frame#	Time	LFHD			LBHD			RFHD			RBHD			C7			T10			CLAV			STRN			RBAK			LSHO			LUPA			LELB			LFRA			LWRB			LWRA			LFIN			RSHO			RUPA			RELB			RFRA			RWRB			RFIN			SACR			LASI			RASI			LT1			LT2			LT3			LS1			LS2			LS3			LHEE			LTOE			RT1			RT2			RT3			RS1			RS2			RS3			RHEE			RTOE			SACO			SACA			SACL			SACP			RWRA			LM5D			RM5D			LKNE			RKNE			LANK			RANK			LKJC			RKJC			LAJC			RAJC			LTHI			RTHI			LTIB			RTIB			P_ForcePlate1			P_ForcePlate2			P_ForcePlate3			funktRKJC			funktLKJC			funktRHIP			funktLHIP			LHJC			RHJC			LKNEshank			RKNEshank			LKJCshank			RKJCshank			LHF			COP_FP1			VECTIP_FP1			RawCentreFP1			COP_FP2			VECTIP_FP2			RawCentreFP2			COP_FP3			VECTIP_FP3			RawCentreFP3			LPelvisAngles			RPelvisAngles			LFootProgressAngles			RFootProgressAngles			LHipAngles			RHipAngles			LKneeAngles			RKneeAngles			LAnkleAngles			RAnkleAngles			LFFootAngles			RFFootAngles			LAbsAnkleAngle			RAbsAnkleAngle			RNeckAngles			LNeckAngles			RSpineAngles			LSpineAngles			LShoulderAngles			LElbowAngles			LWristAngles			RShoulderAngles			RElbowAngles			RWristAngles			RThoraxAngles			LThoraxAngles			RHeadAngles			LHeadAngles			LHipPower			LKneePower			LAnklePower			RHipPower			RKneePower			RAnklePower			LWaistPower			RWaistPower			LNeckPower			RNeckPower			LShoulderPower			RShoulderPower			LElbowPower			RElbowPower			LWristPower			RWristPower			F_ForcePlate1			F_ForcePlate2			F_ForcePlate3			LHipForce			RHipForce			LKneeForce			RKneeForce			LAnkleForce			RAnkleForce			LNormalisedGRF			RNormalisedGRF			LGroundReactionForce			RGroundReactionForce			LGRF			RGRF			LWaistForce			RWaistForce			LNeckForce			RNeckForce			LShoulderForce			RShoulderForce			LElbowForce			RElbowForce			LWristForce			RWristForce			Force_FP1			RawForceFP1			Force_FP2			RawForceFP2			Force_FP3			RawForceFP3			LHipMoment			RHipMoment			LKneeMoment			RKneeMoment			LAnkleMoment			RAnkleMoment			LGroundReactionMoment			RGroundReactionMoment			LWaistMoment			RWaistMoment			LNeckMoment			RNeckMoment			LShoulderMoment			RShoulderMoment			LElbowMoment			RElbowMoment			LWristMoment			RWristMoment			RawMomentFP1			RawMomentFP2			RawMomentFP3			
		X1	Y1	Z1	X2	Y2	Z2	X3	Y3	Z3	X4	Y4	Z4	X5	Y5	Z5	X6	Y6	Z6	X7	Y7	Z7	X8	Y8	Z8	X9	Y9	Z9	X10	Y10	Z10	X11	Y11	Z11	X12	Y12	Z12	X13	Y13	Z13	X14	Y14	Z14	X15	Y15	Z15	X16	Y16	Z16	X17	Y17	Z17	X18	Y18	Z18	X19	Y19	Z19	X20	Y20	Z20	X21	Y21	Z21	X22	Y22	Z22	X23	Y23	Z23	X24	Y24	Z24	X25	Y25	Z25	X26	Y26	Z26	X27	Y27	Z27	X28	Y28	Z28	X29	Y29	Z29	X30	Y30	Z30	X31	Y31	Z31	X32	Y32	Z32	X33	Y33	Z33	X34	Y34	Z34	X35	Y35	Z35	X36	Y36	Z36	X37	Y37	Z37	X38	Y38	Z38	X39	Y39	Z39	X40	Y40	Z40	X41	Y41	Z41	X42	Y42	Z42	X43	Y43	Z43	X44	Y44	Z44	X45	Y45	Z45	X46	Y46	Z46	X47	Y47	Z47	X48	Y48	Z48	X49	Y49	Z49	X50	Y50	Z50	X51	Y51	Z51	X52	Y52	Z52	X53	Y53	Z53	X54	Y54	Z54	X55	Y55	Z55	X56	Y56	Z56	X57	Y57	Z57	X58	Y58	Z58	X59	Y59	Z59	X60	Y60	Z60	X61	Y61	Z61	X62	Y62	Z62	X63	Y63	Z63	X64	Y64	Z64	X65	Y65	Z65	X66	Y66	Z66	X67	Y67	Z67	X68	Y68	Z68	X69	Y69	Z69	X70	Y70	Z70	X71	Y71	Z71	X72	Y72	Z72	X73	Y73	Z73	X74	Y74	Z74	X75	Y75	Z75	X76	Y76	Z76	X77	Y77	Z77	X78	Y78	Z78	X79	Y79	Z79	X80	Y80	Z80	X81	Y81	Z81	X82	Y82	Z82	X83	Y83	Z83	X84	Y84	Z84	X85	Y85	Z85	X86	Y86	Z86	X87	Y87	Z87	X88	Y88	Z88	X89	Y89	Z89	X90	Y90	Z90	X91	Y91	Z91	X92	Y92	Z92	X93	Y93	Z93	X94	Y94	Z94	X95	Y95	Z95	X96	Y96	Z96	X97	Y97	Z97	X98	Y98	Z98	X99	Y99	Z99	X100	Y100	Z100	X101	Y101	Z101	X102	Y102	Z102	X103	Y103	Z103	X104	Y104	Z104	X105	Y105	Z105	X106	Y106	Z106	X107	Y107	Z107	X108	Y108	Z108	X109	Y109	Z109	X110	Y110	Z110	X111	Y111	Z111	X112	Y112	Z112	X113	Y113	Z113	X114	Y114	Z114	X115	Y115	Z115	X116	Y116	Z116	X117	Y117	Z117	X118	Y118	Z118	X119	Y119	Z119	X120	Y120	Z120	X121	Y121	Z121	X122	Y122	Z122	X123	Y123	Z123	X124	Y124	Z124	X125	Y125	Z125	X126	Y126	Z126	X127	Y127	Z127	X128	Y128	Z128	X129	Y129	Z129	X130	Y130	Z130	X131	Y131	Z131	X132	Y132	Z132	X133	Y133	Z133	X134	Y134	Z134	X135	Y135	Z135	X136	Y136	Z136	X137	Y137	Z137	X138	Y138	Z138	X139	Y139	Z139	X140	Y140	Z140	X141	Y141	Z141	X142	Y142	Z142	X143	Y143	Z143	X144	Y144	Z144	X145	Y145	Z145	X146	Y146	Z146	X147	Y147	Z147	X148	Y148	Z148	X149	Y149	Z149	X150	Y150	Z150	X151	Y151	Z151	X152	Y152	Z152	X153	Y153	Z153	X154	Y154	Z154	X155	Y155	Z155	X156	Y156	Z156	X157	Y157	Z157	X158	Y158	Z158	X159	Y159	Z159	X160	Y160	Z160	X161	Y161	Z161	X162	Y162	Z162	X163	Y163	Z163	X164	Y164	Z164	X165	Y165	Z165	X166	Y166	Z166	X167	Y167	Z167	X168	Y168	Z168	X169	Y169	Z169	X170	Y170	Z170	X171	Y171	Z171	X172	Y172	Z172	X173	Y173	Z173	X174	Y174	Z174	X175	Y175	Z175	X176	Y176	Z176	X177	Y177	Z177	X178	Y178	Z178	X179	Y179	Z179	

248	1.646666666666667	780.4349365234375	1263.679443359375	294.2311401367188	654.45361328125	1256.516235351562	260.549072265625	776.3596801757812	1267.70166015625	408.4052734375001	638.6700439453125	1272.225219726562	426.4343566894531	601.0676879882812	1121.145629882812	356.1846008300781	569.8004150390625	973.1119384765625	366.630126953125	715.4257202148438	1075.9501953125	346.3469238281251	742.943359375	1022.031677246094	349.0624694824219	580.0414428710938	1053.292114257812	454.2469482421875	636.6002807617188	1079.701782226562	215.0760345458985	557.224609375	895.014404296875	204.9019317626953	541.97216796875	833.8342895507812	203.6106414794922	520.1912231445312	764.6895751953125	202.2928009033203	504.2189025878906	637.1091918945312	214.2054290771485	567.5372924804688	623.264404296875	183.2813720703125	534.973388671875	568.9963989257812	172.9367370605469	660.4714355468749	1101.90185546875	488.6875915527344	663.9117431640624	1004.966552734375	550.0811767578125	699.6080932617186	863.7549438476562	612.1293945312501	735.3980102539061	716.9537353515625	628.2174682617189	749.0527954101561	676.5157470703125	632.3701171875001	831.4452514648436	639.508544921875	623.2040405273439	585.7178344726562	770.628662109375	358.2584533691406	736.1639404296875	746.7842407226562	270.1622924804688	701.0920410156249	731.9595336914062	493.9261779785157	757.7329711914062	557.6265258789062	231.2908325195313	734.7874145507812	437.9249877929688	246.4422149658204	794.1749877929688	464.6285095214844	252.1678619384766	792.9902954101562	231.3264312744141	248.1554260253907	718.4107666015625	135.2711181640625	254.9355926513673	858.2086181640625	161.8343200683594	270.031463623047	768.7346801757812	46.16794204711916	329.9341125488282	921.2175903320312	53.12885665893557	311.9244995117189	654.4979858398436	522.1611328125	509.2493896484375	600.4663085937499	420.3012084960938	490.4541625976563	651.0924682617186	419.7981567382813	499.4092407226563	489.9738769531249	268.4804687500001	489.9436645507813	371.6076660156249	268.2203979492188	451.5659484863282	475.0567321777343	171.7753601074219	480.9520874023438	341.8874206542968	173.5478668212891	395.9720458984376	411.8452453613281	41.85614395141604	412.8067626953126	620.2030639648438	762.14794921875	368.1264343261719	625.1243286132812	761.0091552734375	368.8223266601562	620.9909057617188	762.48095703125	363.0997009277344	630.9751586914062	811.73828125	373.1000671386719	802.6109619140624	688.9790649414062	584.0091552734376	910.4957885742188	26.42347526550295	281.8077087402345	381.6309509277343	40.10111999511722	438.8296813964844	787.5435791015625	395.1947326660156	264.5193786621095	634.6611328124999	364.6544189453126	489.0190124511719	810.1396484375	52.70800018310548	284.1716613769532	364.3579101562499	150.297836303711	443.6881408691407	780.879150390625	391.4092712402344	316.1993713378907	635.1889038085938	358.43359375	436.6219787597657	818.0298461914062	64.7370071411133	320.8385314941407	387.9085388183593	139.4929656982422	413.9068908691407	744.3023681640625	541.5552368164062	227.8967590332032	649.6231689453124	520.7725219726562	523.9043579101564	779.17431640625	209.6125946044922	229.7340850830079	459.0531921386718	278.2911682128907	496.9393615722657	376.1030578613281	2.333612724646671e-14	381.1078796386719	-254.2699890136719	-0.2560999989509441	231.3000030517578	-950.1600341796875	1.404999971389795	394.6300048828124	0	0	0	0	0	0	0	0	0	0	0	0	683.5982055664062	680.6994018554688	320.8103942871094	667.2743530273438	673.49560546875	421.2175903320312	786.8751220703125	405.9321594238281	270.1963195800782	634.1791992187499	357.8200988769532	488.0690612792969	778.5088500976562	401.4617004394531	321.573211669922	639.0701293945312	351.1367492675781	435.9560852050782	0.2180457562208176	1.781312108039856	-0.02407151646912106	376.1030578613281	2.333612724646671e-14	381.1078796386719	390.7917785644531	57.09651947021487	382.2530822753907	256.7200012207031	0.07899999618532701	396.4200134277344	-254.2699890136719	-0.2560999989509441	231.3000030517578	-254.2699890136719	-0.2560999989509441	231.3000030517578	-254.2699890136719	-0.2560999989509441	231.3000030517578	-950.1600341796875	1.404999971389795	394.6300048828124	-950.1600341796875	1.404999971389795	394.6300048828124	-254.2699890136719	-0.2560999989509441	231.3000030517578	-12.25554943084717	7.881789684295654	5.597822189331052	-12.25554943084717	-7.881789684295654	-5.597822189331056	-1.021519064903259	-3.146338224411011	-1.479913115501404	-68.43197631835938	2.476827383041381	-4.165997028350838	-31.14427185058594	-1.349168419837952	-0.1281552761793174	-7.584211349487304	7.272835731506347	-7.378984451293947	-11.74634075164795	-21.95505142211914	3.368443012237549	-42.91716766357422	-35.09192657470703	5.124115943908688	7.584239482879639	10.65623188018799	1.159085035324097	25.21121406555175	36.34322357177734	14.70930576324463	-1.987846699118442e-16	5.963540229704229e-16	-1.630655525769486e-15	3.18055471858951e-15	-3.975693398236887e-16	7.95138679647378e-16	1.819416999816895	0	2.22814320514004e-16	15.88297176361084	0	1.945103053125381e-15	1.410099744796753	8.822961807250977	-0.2408872395753864	1.410099744796753	-8.822961807250977	0.2408872395753867	10.38774394989014	-12.45040225982666	-10.25527095794678	10.38774394989013	12.45040225982666	10.25527095794678	26.91655158996582	-20.10157203674316	2.789346933364873	-31.10624504089355	-3.307776958155068e-13	-4.356074201083516e-15	-4.339349269866944	90.25653076171875	4.092029094696039	0.9651787281036345	33.13861465454102	26.13873291015625	-40.52055740356445	-2.989721371946669e-13	-4.962337092394161e-15	-6.967123985290529	90.64118194580078	14.53304576873779	-1.063684940338135	5.319482326507568	3.728008985519409	-1.063684940338134	-5.319482326507568	-3.728008985519409	-0.3325518965721135	-3.405770301818847	4.053431987762451	-0.3325518965721125	3.405770301818847	-4.053431987762451	8.06413936867457e-34	0.1075390800833702	-6.58486951036751e-18	3.762173163376522e-34	0.05017034336924553	-3.072047520963509e-18	5.564003803350021e-35	0.007419859990477562	-4.543353893729929e-19	1.008712999254523e-32	1.345166087150574	-8.236766714752599e-17	-1.349358080843627e-32	-1.799432277679443	1.101834489571281e-16	4.518148359530411e-34	0.0602516271173954	-3.689348114636908e-18	nan	nan	nan	nan	nan	nan	nan	nan	nan	nan	nan	nan	-1.209672588918343e-35	-0.001613155123777688	9.877726294312488e-20	1.616407985603947e-36	0.0002155555848730728	-1.319897285265721e-20	5.895749701458764e-35	0.007862258702516556	-4.814244977052661e-19	-1.361586055220107e-35	-0.001815738854929805	1.111819388388633e-19	-1.310271008144791e-35	-0.00174730783328414	1.069917472578259e-19	-5.565537009498495e-36	-0.0007421904592774808	4.544605851559354e-20	390.7917785644531	57.09651947021487	382.2530822753907	-254.2699890136719	-0.2560999989509441	231.3000030517578	-950.1600341796875	1.404999971389795	394.6300048828124	0.2180457562208176	1.781311988830566	-0.02407151646912106	-0.5213358998298645	0.5051576495170593	0.09003478288650503	0.2604365348815918	0.6957512497901917	0.06603057682514189	-0.6531459689140321	-0.2716780006885528	0.6076274514198302	0.204730898141861	-0.06281816214323044	0.01810739375650885	-0.6050033569335938	1.25994610786438	-0.07979623228311554	0	0	0	-4.015869617462158	15.70837688446045	-0.4088427126407638	0	0	0	0.3939568102359772	1.54099178314209	0.04010747000575061	0	0	0	0.3939568102359772	1.54099178314209	0.04010747000575061	nan	nan	nan	nan	nan	nan	nan	nan	nan	nan	nan	nan	-0.1398542821407318	0.5284467935562134	-0.05549260228872304	-0.2723065316677094	0.474185973405838	0.1274093687534332	0.1034231707453728	0.2210194617509842	-0.04309044405817986	0.04085567593574523	0.2395858317613602	0.03265314549207687	-0.02844784036278724	0.05700940638780594	-0.03779419139027597	-0.01982909999787808	0.06005766242742538	0.01586391776800155	390.7917785644531	57.09651947021487	382.2530822753907	14.68872928619385	57.09651947021484	1.145232439041136	-254.2699890136719	-0.2560999989509441	231.3000030517578	0	0	0	-950.1600341796875	1.404999971389795	394.6300048828124	0	0	0	-98.44636535644531	-0.04135629162192395	-8.118973731994641	489.5497741699219	22.11256408691406	-3.895110845565737	29.87431907653809	1.333825945854188	9.405821800231937	-262.4243774414062	13.89472007751464	-167.7577514648438	11.04458808898926	1.09549617767334	0.5012963414192212	-17.05468177795411	42.41879653930664	30.26508140563964	nan	nan	nan	29.107458114624	-15.22740936279296	186.3859252929688	nan	nan	nan	nan	nan	nan	nan	nan	nan	nan	nan	nan	6.542168617248532	-5.719048023223876	19.21334266662598	-39.14205169677734	-2.460819959640502	14.96456146240234	17.91854476928711	-0.02971404790878228	11.02073669433594	5.08259105682373	0.06747920066118264	3.866453886032105	-2.022271394729614	-1.656625700572267e-15	1.715606093406677	-0.5951964259147645	-5.351288489805726e-16	0.5511096119880675	874.2706298828117	-388.4053955078121	6816.35693359375	0	0	0	0	0	0	
249	1.653333333333334	789.39794921875	1264.342163085938	293.7842102050782	663.4113159179688	1257.736572265625	260.0469360351562	785.3157958984375	1268.318725585938	407.9530639648438	647.63037109375	1273.459350585938	425.935546875	609.567626953125	1122.1240234375	355.6547241210938	578.5458984375	973.9534301757812	366.1444396972656	723.9008178710938	1077.1142578125	345.7419738769532	751.5151977539062	1023.310424804688	348.4162292480469	588.59326171875	1054.296264648438	453.6114501953125	644.8773803710938	1080.946411132812	214.5939025878907	565.8120727539062	896.2969970703125	204.4731292724609	550.6665649414062	834.9937133789062	203.1253967285156	529.2130737304688	765.6430053710938	201.6616363525391	513.8339233398438	637.9490356445312	213.1479034423828	577.8325805664062	624.4652709960938	183.0230102539063	546.081787109375	569.720947265625	172.6404876708985	668.9259643554686	1102.9814453125	488.1675720214844	671.8927001953124	1005.791809082031	549.3013305664062	706.3781738281249	864.1149291992188	610.6199340820314	741.2572631835936	717.0291137695312	626.4567871093751	754.6557006835936	676.5175170898438	630.6019897460939	836.6267700195311	638.6664428710938	621.7382812500001	594.6784057617188	771.6264038085938	358.317138671875	745.1015625	748.1854248046875	269.8413391113282	710.4626464843749	732.8632202148438	493.5626831054688	766.750244140625	558.8009033203125	231.4553222656251	743.1552124023438	439.1923217773438	245.9500732421876	802.59521484375	465.6116638183594	252.4435729980469	798.5396728515625	231.7904510498047	247.749237060547	722.197265625	136.9767761230469	252.3663940429688	862.1619873046875	161.0263977050782	270.9067687988282	769.3005981445312	46.89904022216799	329.179901123047	922.1353149414062	51.74435806274416	311.7349548339845	666.5751953124999	522.660400390625	510.1495056152344	614.7685546874999	419.5582885742188	491.8664550781251	665.3292846679686	420.1547546386719	501.2912902832032	504.6159057617187	270.8171386718751	492.1543884277344	386.5942687988281	272.5928344726562	453.0282897949219	487.8837280273437	174.3798217773438	483.4641418457032	356.4055175781249	180.5431671142578	398.0343322753907	417.2884216308593	43.58843994140628	413.7743530273438	629.2962036132812	763.1699829101562	368.0043334960938	634.2205200195312	762.0376586914062	368.6892395019531	630.0746459960938	763.5142822265625	362.9768676757812	639.9979248046875	812.7674560546875	373.0579833984375	808.6410522460936	688.7544555664062	582.6989135742189	911.1185302734375	25.21066093444826	281.2955322265626	387.6361083984374	43.83022689819339	439.9243469238282	795.5455322265625	396.1479797363281	264.4969177246095	650.0966186523436	364.5968322753907	491.2947387695313	811.9420166015625	52.78564071655275	283.4349365234376	377.1129455566406	154.7961120605469	445.5905151367188	788.279296875	392.2247314453125	316.085418701172	651.23828125	357.8807067871094	438.9686889648438	819.159912109375	64.55007171630861	320.3254699707032	400.6496582031249	143.4200897216797	416.0116577148438	753.6323852539062	542.7500610351562	227.8517608642579	661.3294067382811	521.8466796875	525.1399536132814	785.2437744140625	210.6103820800781	228.7879791259766	473.6134948730468	281.2475280761719	498.5949707031251	379.8967590332031	2.264079224295242e-14	369.7521972656251	-254.2699890136719	-0.2560999989509441	231.3000030517578	-950.1600341796875	1.404999971389795	394.6300048828124	0	0	0	0	0	0	0	0	0	0	0	0	692.7376708984375	681.9179077148438	320.4133605957031	676.6038208007812	674.4876708984375	420.834716796875	794.734375	406.3905639648438	270.3471679687501	650.4766235351561	357.4379577636719	490.8370056152344	785.0887451171875	401.8685607910156	321.4947814941407	655.5791015625	350.431396484375	438.7868347167969	0.2416013926267624	1.742208123207092	-0.1078919246792794	379.8967590332031	2.264079224295242e-14	369.7521972656251	384.9951477050781	44.71088790893557	370.7524108886719	256.7200012207031	0.07899999618532701	396.4200134277344	-254.2699890136719	-0.2560999989509441	231.3000030517578	-254.2699890136719	-0.2560999989509441	231.3000030517578	-254.2699890136719	-0.2560999989509441	231.3000030517578	-950.1600341796875	1.404999971389795	394.6300048828124	-950.1600341796875	1.404999971389795	394.6300048828124	-254.2699890136719	-0.2560999989509441	231.3000030517578	-12.1758337020874	7.757574558258057	5.68806982040405	-12.1758337020874	-7.757574558258057	-5.688069820404054	-1.697280049324035	-2.958959579467773	-1.347072601318359	-72.74765777587891	3.141360998153686	-4.025573253631601	-30.75766372680664	-0.6102760434150696	0.1332868933677636	-8.804328918457029	6.696865081787108	-7.791809558868409	-12.48812198638916	-21.1797981262207	3.499506711959839	-45.19644165039062	-34.76925659179688	5.001969337463375	7.130300045013428	9.47344970703125	0.9424995183944705	29.54575538635254	36.20719146728516	17.46690559387207	-1.192708045940846e-15	2.168146429569259e-32	3.54085182940715e-16	-3.18055471858951e-15	9.939233892638914e-16	-7.951386796473781e-16	1.379765152931213	0	1.689724978112269e-16	19.43696403503418	0	2.380341579064683e-15	1.05756402015686	8.868501663208008	-0.237019389867783	1.05756402015686	-8.868501663208008	0.2370193898677833	10.38933181762695	-12.37431716918945	-10.35585212707519	10.38933181762695	12.37431716918945	10.3558521270752	26.88687515258789	-20.05901145935059	2.78134942054749	-31.27365684509277	-1.335833028394406e-13	-3.82991837529755e-15	-4.731494426727295	90.84000396728516	3.429255247116083	1.461931467056271	32.84284210205078	25.76076507568359	-40.38123321533203	-1.49486065886828e-12	-4.945274800277824e-15	-6.847630023956301	90.61161041259766	14.14838886260986	-0.966499507427216	5.36784029006958	3.728530645370483	-0.9664995074272151	-5.36784029006958	-3.728530645370483	-0.0771983191370969	-3.427870273590087	4.029022693634033	-0.07719831913709591	3.427870273590087	-4.029022693634033	1.035620879424841e-33	0.1381049007177353	-8.456486230526877e-18	3.516578034071957e-34	0.04689521715044975	-2.871503878930918e-18	6.339603758852349e-35	0.008454158902168274	-5.176679319511739e-19	1.235178369830924e-32	1.647168278694153	-1.008599680079925e-16	-1.420852086772762e-32	-1.894772887229919	1.160213775728655e-16	-1.423652132720333e-33	-0.1898506879806519	1.162500186757141e-17	nan	nan	nan	nan	nan	nan	nan	nan	nan	nan	nan	nan	-7.72211066207575e-36	-0.00102977966889739	6.305581876711052e-20	-2.945106122937717e-35	-0.003927437122911215	2.404861650712855e-19	5.641559957809863e-35	0.007523284759372473	-4.606683299819782e-19	-1.323930449359376e-35	-0.0017655233386904	1.081071252773574e-19	-1.437564219909419e-35	-0.001917059300467372	1.173860268046516e-19	-7.405334191599857e-36	-0.0009875360410660505	6.046914258670939e-20	384.9951782226562	44.71088790893557	370.7524414062501	-254.2699890136719	-0.2560999989509441	231.3000030517578	-950.1600341796875	1.404999971389795	394.6300048828124	0.2416013777256012	1.742208123207092	-0.1078919246792794	-0.6779288649559021	0.8568587303161621	0.1136374697089194	0.2787029147148132	0.6730006337165833	0.01500911079347133	-0.5365765690803529	0.1313482969999314	0.5865609049797057	0.19856958091259	-0.05827758088707924	0.001863501849584309	-0.1493329703807831	1.069327354431152	-0.05295045673847207	0	0	0	-1.504055500030518	13.01206111907959	-0.2448242008686076	0	0	0	0.1475478410720825	1.276483178138733	0.02401725389063352	0	0	0	0.1475478410720825	1.276483178138733	0.02401725389063352	nan	nan	nan	nan	nan	nan	nan	nan	nan	nan	nan	nan	-0.1343217492103577	0.5132618546485901	-0.06048677489161496	-0.2652271091938019	0.4598074555397034	0.1290711164474487	0.1005035787820816	0.2141811698675156	-0.04615875333547592	0.03987633064389228	0.2327331602573395	0.03680019453167915	-0.02864780835807323	0.05535491183400154	-0.03615145757794381	-0.02071536518633366	0.05817282199859619	0.01601470820605754	384.9951782226562	44.71088790893557	370.7524414062501	5.098410129547119	44.71088790893555	1.000233769416807	-254.2699890136719	-0.2560999989509441	231.3000030517578	0	0	0	-950.1600341796875	1.404999971389795	394.6300048828124	0	0	0	-98.96488952636719	2.309583425521848	-41.16312789916994	561.0471801757812	37.34607696533203	-21.65130805969232	32.30709457397461	0.5277706384658812	-1.886867880821224	-268.6907348632812	17.73132133483886	-192.8660736083985	10.73772716522217	0.2475655376911163	0.1847528368234647	27.65379524230957	48.65359115600586	26.3182258605957	nan	nan	nan	32.79465866088866	-10.99028396606444	141.79443359375	nan	nan	nan	nan	nan	nan	nan	nan	nan	nan	nan	nan	6.252346992492673	-5.87941551208496	20.79085731506348	-37.57193374633789	-2.91937232017517	16.86027908325195	17.23763275146484	-0.07205532491207055	11.20696640014649	5.17708921432495	0.06899349391460446	4.587225914001466	-2.071753025054932	-1.630360587474388e-15	1.595114588737488	-0.6868034005165101	3.799721088776539e-16	0.6111792922019957	1192.341674804687	-362.7517395019528	5507.34228515625	0	0	0	0	0	0	
